<svg id="Layer_1" enable-background="new 0 0 24 24" height="512" viewBox="0 0 24 24" width="512" xmlns="http://www.w3.org/2000/svg"><g><path d="m7.5 14c-.276 0-.5-.224-.5-.5v-9.5c0-1.103.897-2 2-2s2 .897 2 2v8.5c0 .276-.224.5-.5.5s-.5-.224-.5-.5v-8.5c0-.552-.449-1-1-1s-1 .448-1 1v9.5c0 .276-.224.5-.5.5z"/></g><g><path d="m13.5 13c-.276 0-.5-.224-.5-.5v-9.5c0-.552-.449-1-1-1s-1 .448-1 1v1c0 .276-.224.5-.5.5s-.5-.224-.5-.5v-1c0-1.103.897-2 2-2s2 .897 2 2v9.5c0 .276-.224.5-.5.5z"/></g><g><path d="m16.5 13c-.276 0-.5-.224-.5-.5v-7.5c0-.552-.449-1-1-1s-1 .448-1 1c0 .276-.224.5-.5.5s-.5-.224-.5-.5c0-1.103.897-2 2-2s2 .897 2 2v7.5c0 .276-.224.5-.5.5z"/></g><g><path d="m15.5 23h-5.787c-1.559 0-2.984-.789-3.812-2.109l-4.583-7.308c-.002-.004-.004-.007-.006-.01-.204-.311-.312-.682-.312-1.073 0-1.103.897-2 2-2 .368 0 .721.097 1.021.281.008.004.016.009.023.014l3.717 2.279c.235.144.31.452.165.688-.146.234-.453.31-.688.164l-3.695-2.266c-.011-.006-.021-.012-.032-.019-.145-.092-.322-.141-.511-.141-.551 0-1 .448-1 1 0 .186.049.365.138.51.005.007.009.014.014.021l4.596 7.329c.644 1.027 1.752 1.64 2.965 1.64h5.787c1.93 0 3.5-1.57 3.5-3.5v-12.5c0-.552-.449-1-1-1s-1 .448-1 1c0 .276-.224.5-.5.5s-.5-.224-.5-.5c0-1.103.897-2 2-2s2 .897 2 2v12.5c0 2.481-2.019 4.5-4.5 4.5z"/></g></svg>