<svg width="490.667" height="490.667" xmlns="http://www.w3.org/2000/svg">

 <g>
  <title>background</title>
  <rect fill="none" id="canvas_background" height="602" width="802" y="-1" x="-1"/>
 </g>
 <g>
  <title>Layer 1</title>
  <path transform="rotate(-90 245.33299255371097,244.33299255371097) " id="svg_1" fill="#FFC107" d="m245.333,-1c-135.494,0 -245.333,109.839 -245.333,245.333s109.839,245.333 245.333,245.333s245.333,-109.839 245.333,-245.333c-0.152,-135.43 -109.902,-245.18 -245.333,-245.333z"/>
  <path id="svg_2" fill="#FAFAFA" d="m252.885,63.944c-4.234,-3.996 -10.849,-3.996 -15.083,0l-149.333,149.504c-4.171,4.16 -4.179,10.914 -0.019,15.085c2.001,2.006 4.717,3.133 7.55,3.134l74.667,0l0,159.829c0,5.891 4.776,10.667 10.667,10.667l128,0c5.891,0 10.667,-4.776 10.667,-10.667l0,-159.829l74.667,0c5.891,0.011 10.675,-4.757 10.686,-10.648c0.005,-2.84 -1.123,-5.565 -3.134,-7.571l-149.335,-149.504z"/>
  <g id="svg_3"/>
  <g id="svg_4"/>
  <g id="svg_5"/>
  <g id="svg_6"/>
  <g id="svg_7"/>
  <g id="svg_8"/>
  <g id="svg_9"/>
  <g id="svg_10"/>
  <g id="svg_11"/>
  <g id="svg_12"/>
  <g id="svg_13"/>
  <g id="svg_14"/>
  <g id="svg_15"/>
  <g id="svg_16"/>
  <g id="svg_17"/>
 </g>
</svg>